<svg width="141" height="141" viewBox="0 0 141 141" fill="none" xmlns="http://www.w3.org/2000/svg">
<path d="M63.5 130.066C100.263 130.066 130.066 100.263 130.066 63.5C130.066 26.7368 100.263 -3.06557 63.5 -3.06557C26.7368 -3.06557 -3.06557 26.7368 -3.06557 63.5C-3.06557 100.263 26.7368 130.066 63.5 130.066Z" transform="translate(7 7)" fill="url(#paint0_linear)" stroke="white" stroke-width="6.13114"/>
<path d="M69.9384 0H0V46.6997H69.9384V0Z" transform="translate(35.6641 52.1032)" fill="#FFDA00"/>
<path d="M34.934 0H2.86569e-06V46.6997H34.934V0Z" transform="translate(70.6704 52.1032)" fill="#FFB600"/>
<path d="M69.9388 27.8525L43.833 3.49098C38.845 -1.16366 31.0936 -1.16366 26.1056 3.49098L-5.99189e-07 27.8525H69.9388Z" transform="translate(35.665 70.9489)" fill="#FFF04A"/>
<path d="M8.86357 3.49013C6.37899 1.17154 3.20849 0.00872607 0 -2.44284e-06V27.8518H34.9694L8.86357 3.49013Z" transform="translate(70.6343 70.9497)" fill="#FFDA00"/>
<path d="M69.9388 27.3972V27.3968H69.9384L44.6772 3.82341C39.2142 -1.27447 30.7246 -1.27447 25.2616 3.82341L0.000212699 27.3968H-5.99189e-07L0.000212699 27.397L-5.99189e-07 27.3972H0.000427625L25.2618 50.9706C30.7248 56.0685 39.2145 56.0685 44.6775 50.9706L69.9388 27.3972Z" transform="translate(35.665 24.7057)" fill="white"/>
<path d="M34.9694 27.3963H34.969L9.70784 3.82266C6.98552 1.28245 3.51196 0.00872859 0 7.79629e-08V54.7925C3.51196 54.7838 6.98573 53.5103 9.70784 50.9699L34.9694 27.3963L34.9696 27.3965V27.3963H34.9694Z" transform="translate(70.6343 24.7065)" fill="#F6F6F6"/>
<path d="M24.9374 34.405L15.2955 39.9302L5.65359 34.405C2.15635 32.4011 3.90775e-07 28.6847 3.90775e-07 24.6615V7.01177L15.2955 3.76821e-07L30.591 7.01177V24.6615C30.591 28.6849 28.4346 32.4011 24.9374 34.405Z" transform="translate(55.3389 35.5486)" fill="#3DE000"/>
<path d="M0 3.76821e-07V39.9302L9.64189 34.405C13.1391 32.4011 15.2955 28.6847 15.2955 24.6615V7.01177L0 3.76821e-07Z" transform="translate(70.6343 35.5486)" fill="#00CC00"/>
<path d="M7.61296 17.0702L-9.63913e-07 9.47576L3.77276 5.71249L7.61296 9.54325L17.1799 -1.03951e-06L20.9527 3.76327L7.61296 17.0702Z" transform="translate(60.1577 46.6776)" fill="white"/>
<path d="M6.7036 -1.0395e-06L0 6.68647V14.2134L10.4763 3.76327L6.7036 -1.0395e-06Z" transform="translate(70.6343 46.6776)" fill="#EBEBF0"/>
<defs>
<linearGradient id="paint0_linear" x2="1" gradientUnits="userSpaceOnUse" gradientTransform="translate(10.0374 107.775) scale(107.775) rotate(-90)">
<stop stop-color="white"/>
<stop offset="1" stop-color="#E1E1E1"/>
</linearGradient>
</defs>
</svg>
